<svg width="1169" height="578" viewBox="0 0 1169 578" fill="none" xmlns="http://www.w3.org/2000/svg">
<g opacity="0.2">
<path d="M165.862 36.0466C164.579 35.6918 163.27 35.2825 161.987 34.9278C238.138 19.7833 428.829 74.3307 637.118 175.539C848.818 278.385 1011.41 396.73 1042.97 465.494C979.674 390.209 824.043 283.979 630.188 189.811C441.216 97.9888 265.641 41.8042 165.862 36.0466Z" fill="#231F20"/>
<path d="M1043 465.495C1044.77 467.623 1046.47 469.697 1048.1 471.771C1046.9 470.87 1045.73 469.942 1044.53 469.042C1044.06 467.869 1043.55 466.695 1043 465.495Z" stroke="#231F20" stroke-miterlimit="10"/>
<path d="M609.67 210.031C447.573 131.28 292.68 71.6568 165.862 36.0469C265.641 41.8045 441.189 97.9891 630.215 189.811C824.071 283.979 979.701 390.209 1043 465.495C1043.55 466.695 1044.06 467.869 1044.53 469.042C936.1 386.689 784.154 294.785 609.67 210.004V210.031Z" fill="#231F20"/>
<path d="M1.3642 1.52832C46.7381 6.68562 101.089 18.0099 162.015 34.9553C160.787 35.2009 159.532 35.4465 158.359 35.7466C118.387 34.4368 91.812 41.9136 83.3265 59.3774C53.9685 119.819 251.235 276.203 523.915 408.682C796.595 541.162 1041.47 599.557 1070.83 539.116C1078.72 522.853 1070.09 499.604 1048.13 471.798C1097.19 509.291 1137.13 544.764 1165.94 576.636L608.142 576.281C561.076 556.116 512.81 534.095 463.862 510.3C273.99 418.069 110.802 317.406 1.3642 229.759C1.3642 141.812 1.3642 94.4962 1.3642 1.52832Z" stroke="#231F20" stroke-miterlimit="10"/>
<path d="M158.359 35.7196C159.532 35.4467 160.76 35.1738 162.015 34.9282C163.297 35.283 164.607 35.6923 165.889 36.047C163.324 35.9106 160.841 35.8014 158.359 35.7196Z" fill="black" stroke="#231F20" stroke-miterlimit="10"/>
<path d="M1070.8 539.116C1041.45 599.557 796.595 541.162 523.888 408.682C251.207 276.202 53.9412 119.791 83.2992 59.3773C91.7847 41.9135 118.36 34.4367 158.331 35.7465C143.952 39.212 134.075 45.379 129.628 54.5202C102.398 110.596 285.422 255.71 538.458 378.639C791.493 501.568 1018.69 555.761 1045.95 499.685C1050.01 491.336 1049.3 480.994 1044.5 469.069C1045.7 469.97 1046.87 470.897 1048.08 471.798C1070.04 499.604 1078.66 522.852 1070.78 539.116H1070.8Z" stroke="#231F20" stroke-miterlimit="10"/>
<path d="M609.67 210.031C784.154 294.812 936.1 386.716 1044.53 469.069C1049.33 480.994 1050.01 491.336 1045.97 499.686C1018.74 555.761 791.52 501.568 538.485 378.639C285.449 255.71 102.426 110.596 129.655 54.5203C134.103 45.3517 143.98 39.1848 158.359 35.7466C160.814 35.8284 163.324 35.9376 165.889 36.074C292.707 71.684 447.601 131.307 609.697 210.058L609.67 210.031Z" fill="#231F20"/>
</g>
</svg>
