<svg width="2493" height="1259" viewBox="0 0 2493 1259" fill="none" xmlns="http://www.w3.org/2000/svg">
<path opacity="0.2" d="M2489.52 29.9512C2450.36 -51.1879 2088.78 37.7818 1612.23 233.356C1610.71 231.733 1609.24 230.077 1607.71 228.486C1537.93 155.91 1453.87 105.297 1364.22 76.8394C1337.32 68.3085 1309.9 61.7511 1282.24 57.1992C1263.77 54.1752 1245.21 52.0106 1226.59 50.7692C1207.96 49.5278 1189.27 49.1458 1170.61 49.6551C1133.3 50.7055 1096.05 55.3211 1059.41 63.5019C1022.76 71.6827 986.753 83.4286 951.922 98.7715C934.507 106.443 917.378 115.006 900.6 124.46C875.448 138.657 851.124 154.859 827.851 173.099C812.346 185.258 797.287 198.309 782.769 212.252C776.115 218.65 769.715 225.175 763.412 231.828C761.438 233.897 759.559 236.03 757.617 238.099C753.319 242.778 749.085 247.489 744.946 252.264C742.876 254.683 740.807 257.103 738.769 259.522C734.758 264.328 730.873 269.167 727.053 274.069C725.302 276.329 723.487 278.557 721.768 280.849C716.738 287.502 711.835 294.187 707.123 300.999C706.772 301.476 706.422 301.954 706.072 302.463C701.042 309.752 696.234 317.169 691.586 324.65C690.153 326.942 688.816 329.265 687.415 331.557C684.2 336.873 681.079 342.189 678.055 347.569C676.558 350.274 675.062 352.98 673.598 355.686C670.732 360.97 667.962 366.317 665.288 371.697C664.014 374.244 662.709 376.758 661.467 379.337C658.125 386.276 654.941 393.247 651.884 400.25C651.47 401.173 651.025 402.096 650.611 403.051C647.204 411.009 644.02 419.063 640.964 427.148C640.073 429.535 639.245 431.955 638.385 434.374C636.284 440.167 634.278 445.961 632.4 451.786C631.445 454.682 630.553 457.547 629.662 460.444C627.942 466.078 626.287 471.712 624.727 477.378C623.963 480.116 623.199 482.885 622.466 485.623C620.652 492.626 618.964 499.693 617.404 506.759C617.118 508.064 616.767 509.401 616.481 510.706C614.698 519.078 613.138 527.482 611.705 535.917C611.291 538.336 610.973 540.755 610.591 543.207C609.636 549.318 608.776 555.398 608.012 561.542C607.662 564.502 607.312 567.494 606.993 570.455C606.357 576.248 605.847 582.073 605.401 587.898C605.178 590.763 604.956 593.596 604.765 596.461C604.319 603.432 604.032 610.403 603.841 617.375C603.81 618.966 603.714 620.558 603.682 622.149C603.523 630.68 603.587 639.211 603.778 647.742C603.841 650.098 603.969 652.421 604.064 654.777C604.287 661.016 604.605 667.287 605.051 673.526C605.242 676.486 605.497 679.447 605.752 682.407C606.229 688.2 606.834 694.025 607.503 699.819C607.821 702.716 608.139 705.58 608.521 708.477C609.222 713.952 610.05 719.427 610.941 724.902C217.046 953.391 -32.7522 1153.96 3.47898 1229.05C40.1559 1305.04 359.678 1231.82 791.62 1061.56C1016.71 1269.45 1367.66 1268.43 1591.44 1053.31C1719.56 930.185 1779.06 762.655 1769.35 598.18C2227.43 343.685 2529.1 111.95 2489.52 29.9512ZM409.918 1025.52C391.866 988.119 477.287 905.357 628.866 802.763C629.566 805.055 630.362 807.346 631.094 809.67C631.986 812.503 632.877 815.336 633.832 818.138C635.934 824.408 638.162 830.647 640.486 836.886C641.219 838.828 641.855 840.77 642.62 842.712C645.74 850.765 649.019 858.787 652.489 866.745C653.349 868.718 654.304 870.692 655.195 872.634C657.233 877.154 659.239 881.674 661.372 886.13C661.499 886.417 661.722 886.639 661.913 886.894C679.488 923.182 700.978 958.102 726.544 990.92C548.635 1047.23 428.161 1063.34 409.918 1025.52ZM1758.15 513.508C1747.04 459.998 1728.28 407.762 1701.95 358.423C1701.16 356.704 1700.3 354.985 1699.37 353.266C1698.55 351.739 1697.66 350.274 1696.83 348.746C1695.81 346.932 1694.79 345.149 1693.77 343.335C1689.85 336.491 1685.81 329.711 1681.61 322.994C1681.2 322.326 1680.81 321.657 1680.4 321.021C1675.81 313.795 1671.04 306.697 1666.1 299.63C1664.89 297.911 1663.65 296.16 1662.44 294.441C1660.56 291.799 1658.72 289.189 1656.78 286.579C1910.33 192.771 2091.74 156.196 2114.47 203.307C2137.43 250.864 1993.14 371.761 1758.18 513.476L1758.15 513.508Z" fill="#231F20"/>
</svg>
