<svg width="2472" height="1248" viewBox="0 0 2472 1248" fill="none" xmlns="http://www.w3.org/2000/svg">
<path opacity="0.05" d="M2467.56 29.6917C2428.76 -50.7379 2070.52 37.4539 1598.36 231.318C1596.85 229.709 1595.4 228.068 1593.88 226.49C1524.74 154.549 1441.46 104.379 1352.63 76.1699C1325.98 67.7136 1298.82 61.2136 1271.41 56.7015C1253.11 53.7039 1234.72 51.5583 1216.27 50.3277C1197.82 49.0971 1179.3 48.7184 1160.81 49.2233C1123.84 50.2646 1086.94 54.8398 1050.63 62.949C1014.32 71.0583 978.647 82.7015 944.138 97.9102C926.883 105.515 909.912 114.002 893.289 123.374C868.369 137.447 844.269 153.507 821.21 171.587C805.848 183.641 790.928 196.578 776.544 210.398C769.951 216.74 763.611 223.209 757.365 229.803C755.409 231.854 753.548 233.968 751.624 236.019C747.365 240.658 743.17 245.328 739.069 250.061C737.019 252.459 734.969 254.857 732.95 257.255C728.975 262.019 725.127 266.816 721.342 271.675C719.607 273.915 717.809 276.124 716.105 278.396C711.121 284.99 706.263 291.616 701.595 298.369C701.248 298.842 700.901 299.316 700.554 299.82C695.57 307.046 690.807 314.398 686.201 321.813C684.782 324.085 683.457 326.388 682.069 328.66C678.883 333.93 675.792 339.199 672.795 344.532C671.313 347.214 669.83 349.896 668.379 352.578C665.54 357.816 662.796 363.116 660.146 368.449C658.884 370.973 657.591 373.466 656.361 376.022C653.048 382.9 649.894 389.811 646.866 396.752C646.456 397.667 646.014 398.583 645.604 399.529C642.229 407.417 639.074 415.4 636.046 423.415C635.163 425.782 634.343 428.18 633.491 430.578C631.409 436.32 629.422 442.063 627.561 447.837C626.615 450.709 625.731 453.549 624.848 456.42C623.145 462.005 621.504 467.59 619.959 473.206C619.202 475.92 618.445 478.665 617.719 481.379C615.921 488.32 614.249 495.325 612.704 502.33C612.42 503.624 612.073 504.949 611.789 506.243C610.022 514.541 608.477 522.871 607.057 531.233C606.647 533.631 606.332 536.029 605.953 538.459C605.007 544.517 604.155 550.544 603.398 556.633C603.051 559.568 602.704 562.534 602.389 565.468C601.758 571.211 601.253 576.985 600.811 582.76C600.591 585.599 600.37 588.408 600.181 591.248C599.739 598.158 599.455 605.068 599.266 611.978C599.234 613.556 599.14 615.133 599.108 616.711C598.95 625.167 599.013 633.624 599.203 642.08C599.266 644.415 599.392 646.718 599.487 649.053C599.707 655.238 600.023 661.454 600.464 667.638C600.654 670.573 600.906 673.507 601.158 676.442C601.632 682.184 602.231 687.959 602.893 693.701C603.209 696.573 603.524 699.413 603.903 702.284C604.597 707.711 605.417 713.138 606.3 718.566C216.036 945.056 -31.4591 1143.87 4.43812 1218.31C40.777 1293.63 357.354 1221.05 785.313 1052.27C1008.33 1258.35 1356.04 1257.34 1577.76 1044.1C1704.7 922.053 1763.65 755.988 1754.03 592.951C2207.89 340.682 2506.77 110.973 2467.56 29.6917ZM407.13 1016.56C389.245 979.481 473.878 897.442 624.059 795.745C624.753 798.017 625.542 800.289 626.268 802.592C627.151 805.4 628.034 808.209 628.98 810.985C631.062 817.201 633.27 823.386 635.573 829.57C636.299 831.495 636.929 833.42 637.686 835.345C640.778 843.328 644.027 851.279 647.465 859.168C648.317 861.124 649.263 863.08 650.146 865.005C652.165 869.485 654.153 873.966 656.266 878.384C656.392 878.667 656.613 878.888 656.802 879.141C674.215 915.112 695.507 949.726 720.837 982.257C544.568 1038.08 425.205 1054.04 407.13 1016.56ZM1742.93 509.019C1731.92 455.978 1713.34 404.199 1687.25 355.291C1686.47 353.587 1685.61 351.883 1684.7 350.18C1683.88 348.665 1683 347.214 1682.18 345.699C1681.17 343.9 1680.16 342.133 1679.15 340.335C1675.27 333.551 1671.26 326.83 1667.1 320.172C1666.69 319.51 1666.31 318.847 1665.9 318.216C1661.36 311.053 1656.62 304.017 1651.74 297.012C1650.54 295.308 1649.31 293.573 1648.11 291.869C1646.25 289.25 1644.42 286.663 1642.49 284.075C1893.71 191.087 2073.45 154.833 2095.97 201.532C2118.71 248.672 1975.76 368.512 1742.96 508.988L1742.93 509.019Z" fill="white"/>
</svg>
